#!OML:ASF C:\Vicon Data\Big\jianyuan-13\jianyuan\Session 1\Capture.male.ASF
:FULLY-SPECIFIED
:DEGREES
195
root -7.771230 17.448345 -15.275263 10.598500 4.097572 2.386365
lowerback -9.081125 -0.202929 -3.200883 
upperback -0.514777 0.007505 -0.316523 
thorax 4.558687 -0.087086 1.470818 
lowerneck -9.644815 -1.933357 4.511648 
upperneck 11.528690 -2.874128 -4.100957 
head 4.915128 -1.534027 -2.213652 
rclavicle 0.000000 0.000000 
rhumerus -38.907645 -17.393340 -80.496877 
rradius 30.677481 
rwrist 27.676813 
rhand -19.990980 -15.029736 
rfingers 0.000000 
rthumb 6.348542 -44.914592 
lclavicle 0.000000 0.000000 
lhumerus -40.982125 39.468623 69.047163 
lradius 23.204922 
lwrist -65.016869 
lhand -23.350976 -0.243057 
lfingers 0.000000 
lthumb 3.104130 29.714087 
rfemur -30.319816 -1.869758 19.725927 
rtibia 58.379612 
rfoot -9.434388 -3.311126 
rtoes -21.532625 
lfemur -20.794527 -6.445268 -23.115864 
ltibia 16.711434 
lfoot -7.256133 3.103237 
ltoes -12.363044 
196
root -7.771985 17.448535 -15.238614 10.603675 4.061666 2.399810
lowerback -9.029607 -0.232963 -3.259601 
upperback -0.490071 -0.027123 -0.299540 
thorax 4.557434 -0.105133 1.517106 
lowerneck -9.672895 -1.913259 4.580771 
upperneck 11.584069 -2.848224 -4.191123 
head 4.935590 -1.525095 -2.252727 
rclavicle 0.000000 0.000000 
rhumerus -39.037506 -17.661067 -80.319911 
rradius 30.550192 
rwrist 27.931175 
rhand -20.020300 -14.978993 
rfingers 0.000000 
rthumb 6.320237 -44.864702 
lclavicle 0.000000 0.000000 
lhumerus -40.484017 39.494654 69.440184 
lradius 23.276871 
lwrist -65.092036 
lhand -23.294379 -0.283174 
lfingers 0.000000 
lthumb 3.158798 29.673141 
rfemur -30.696172 -1.719139 19.667672 
rtibia 58.209963 
rfoot -9.762099 -3.647380 
rtoes -21.982177 
lfemur -20.696150 -6.474368 -23.123633 
ltibia 16.775554 
lfoot -7.428480 3.080085 
ltoes -12.298382 
197
root -7.772342 17.449104 -15.202076 10.588312 4.020849 2.356807
lowerback -8.956988 -0.253270 -3.223525 
upperback -0.462271 -0.058389 -0.287171 
thorax 4.547303 -0.119165 1.505751 
lowerneck -9.698444 -1.894779 4.555680 
upperneck 11.643073 -2.827043 -4.147918 
head 4.960213 -1.513499 -2.235227 
rclavicle 0.000000 0.000000 
rhumerus -39.172583 -17.926534 -80.166020 
rradius 30.402245 
rwrist 28.244080 
rhand -20.070882 -14.959025 
rfingers 0.000000 
rthumb 6.271383 -44.846179 
lclavicle 0.000000 0.000000 
lhumerus -39.851100 39.260093 70.036824 
lradius 23.352590 
lwrist -64.639472 
lhand -23.346362 -0.204202 
lfingers 0.000000 
lthumb 3.108591 29.752856 
rfemur -31.023492 -1.537235 19.665674 
rtibia 57.985882 
rfoot -10.022823 -3.960146 
rtoes -22.090905 
lfemur -20.581398 -6.448882 -23.082285 
ltibia 16.854636 
lfoot -7.592201 3.019170 
ltoes -12.340520 
198
root -7.771895 17.450091 -15.166014 10.558949 3.993506 2.257968
lowerback -8.867323 -0.266752 -3.103470 
upperback -0.426014 -0.088931 -0.267261 
thorax 4.536268 -0.130850 1.455163 
lowerneck -9.752167 -1.873278 4.486319 
upperneck 11.707878 -2.804981 -4.029857 
head 4.993356 -1.498192 -2.187638 
rclavicle 0.000000 0.000000 
rhumerus -39.288319 -18.183999 -80.026907 
rradius 30.247972 
rwrist 28.545756 
rhand -20.147753 -14.962291 
rfingers 0.000000 
rthumb 6.197145 -44.851619 
lclavicle 0.000000 0.000000 
lhumerus -39.134571 38.884828 70.750705 
lradius 23.438021 
lwrist -63.952339 
lhand -23.451014 -0.066304 
lfingers 0.000000 
lthumb 3.007531 29.892243 
rfemur -31.317435 -1.332716 19.719397 
rtibia 57.712005 
rfoot -10.258750 -4.295132 
rtoes -21.816970 
lfemur -20.456842 -6.402133 -22.987388 
ltibia 16.939418 
lfoot -7.747473 2.942001 
ltoes -12.457293 
199
root -7.770794 17.451366 -15.130697 10.524311 4.003055 2.137103
lowerback -8.765901 -0.279097 -2.964754 
upperback -0.373730 -0.119490 -0.229321 
thorax 4.535274 -0.142161 1.412907 
lowerneck -9.872551 -1.847047 4.481222 
upperneck 11.782143 -2.778906 -3.979248 
head 5.038745 -1.482517 -2.172403 
rclavicle 0.000000 0.000000 
rhumerus -39.361135 -18.444567 -79.887250 
rradius 30.114903 
rwrist 28.747375 
rhand -20.255427 -14.976309 
rfingers 0.000000 
rthumb 6.093192 -44.868667 
lclavicle 0.000000 0.000000 
lhumerus -38.447789 38.621995 71.388008 
lradius 23.529107 
lwrist -63.601242 
lhand -23.488479 0.007113 
lfingers 0.000000 
lthumb 2.971400 29.966145 
rfemur -31.601257 -1.125173 19.793483 
rtibia 57.396282 
rfoot -10.544484 -4.704028 
rtoes -21.368128 
lfemur -20.333908 -6.391567 -22.865412 
ltibia 17.023130 
lfoot -7.909265 2.880192 
ltoes -12.516721 
200
root -7.769521 17.453023 -15.095632 10.564801 3.999922 2.116615
lowerback -8.694026 -0.307528 -2.922278 
upperback -0.382270 -0.164315 -0.215387 
thorax 4.488033 -0.162596 1.398062 
lowerneck -9.883105 -1.836445 4.524109 
upperneck 11.830811 -2.765772 -4.035315 
head 5.054647 -1.478675 -2.197029 
rclavicle 0.000000 0.000000 
rhumerus -39.509823 -18.679233 -79.720657 
rradius 29.999739 
rwrist 28.934634 
rhand -20.398909 -15.049194 
rfingers 0.000000 
rthumb 5.954720 -44.945495 
lclavicle 0.000000 0.000000 
lhumerus -37.861322 38.336295 71.976921 
lradius 23.647032 
lwrist -63.211500 
lhand -23.480433 0.096045 
lfingers 0.000000 
lthumb 2.979153 30.054963 
rfemur -31.958423 -0.911048 19.735427 
rtibia 57.035094 
rfoot -10.917346 -4.999328 
rtoes -20.534611 
lfemur -20.289026 -6.458378 -22.833151 
ltibia 17.111553 
lfoot -8.205748 2.875491 
ltoes -12.161528 
201
root -7.768091 17.454497 -15.059901 10.585939 3.962604 2.085788
lowerback -8.628945 -0.336668 -2.900553 
upperback -0.375423 -0.207381 -0.187966 
thorax 4.460696 -0.182870 1.409176 
lowerneck -9.941893 -1.791595 4.540266 
upperneck 11.921663 -2.708670 -4.055768 
head 5.094751 -1.452342 -2.204663 
rclavicle 0.000000 0.000000 
rhumerus -39.601953 -18.671034 -79.703174 
rradius 29.922863 
rwrist 28.680854 
rhand -20.593564 -15.229836 
rfingers 0.000000 
rthumb 5.766788 -45.131362 
lclavicle 0.000000 0.000000 
lhumerus -37.150894 37.841673 72.771265 
lradius 23.828613 
lwrist -62.264925 
lhand -23.357889 0.372036 
lfingers 0.000000 
lthumb 3.097469 30.329236 
rfemur -32.277871 -0.678911 19.687041 
rtibia 56.635331 
rfoot -11.224224 -5.311585 
rtoes -20.099439 
lfemur -20.201230 -6.519636 -22.794906 
ltibia 17.169175 
lfoot -8.374896 2.915136 
ltoes -12.430973 
202
root -7.766456 17.455757 -15.024932 10.609406 3.939744 2.045546
lowerback -8.576054 -0.369392 -2.862352 
upperback -0.354907 -0.255596 -0.161534 
thorax 4.454597 -0.205569 1.409359 
lowerneck -9.979211 -1.760301 4.521778 
upperneck 11.968221 -2.668365 -4.034234 
head 5.117909 -1.432400 -2.193568 
rclavicle 0.000000 0.000000 
rhumerus -39.667014 -18.648662 -79.714269 
rradius 29.866429 
rwrist 28.351471 
rhand -20.747214 -15.420771 
rfingers 0.000000 
rthumb 5.618412 -45.326306 
lclavicle 0.000000 0.000000 
lhumerus -36.441877 37.395116 73.504615 
lradius 23.981039 
lwrist -61.437736 
lhand -23.249202 0.486964 
lfingers 0.000000 
lthumb 3.202417 30.442644 
rfemur -32.593282 -0.466065 19.649886 
rtibia 56.205107 
rfoot -11.465691 -5.588529 
rtoes -19.944549 
lfemur -20.107539 -6.587524 -22.746987 
ltibia 17.199332 
lfoot -8.509356 2.957232 
ltoes -12.926493 
203
root -7.764649 17.457327 -14.990512 10.645214 3.936853 2.013426
lowerback -8.535496 -0.404102 -2.821652 
upperback -0.329838 -0.306014 -0.137768 
thorax 4.460262 -0.229475 1.405084 
lowerneck -9.992185 -1.752426 4.447838 
upperneck 11.975035 -2.655185 -3.970657 
head 5.124830 -1.424928 -2.161058 
rclavicle 0.000000 0.000000 
rhumerus -39.731283 -18.697281 -79.680561 
rradius 29.817322 
rwrist 28.120045 
rhand -20.841603 -15.569652 
rfingers 0.000000 
rthumb 5.527247 -45.477537 
lclavicle 0.000000 0.000000 
lhumerus -35.795908 37.089938 74.099305 
lradius 24.080118 
lwrist -61.010612 
lhand -23.227470 0.398581 
lfingers 0.000000 
lthumb 3.223410 30.353978 
rfemur -32.912301 -0.270915 19.601652 
rtibia 55.743465 
rfoot -11.674586 -5.819274 
rtoes -19.957996 
lfemur -20.022351 -6.667493 -22.705972 
ltibia 17.213576 
lfoot -8.658939 2.989718 
ltoes -13.323749 
204
root -7.762790 17.460396 -14.954830 10.695398 3.920775 2.027585
lowerback -8.502500 -0.434541 -2.844292 
upperback -0.318934 -0.345631 -0.106897 
thorax 4.455289 -0.249453 1.445170 
lowerneck -10.039495 -1.745273 4.279734 
upperneck 12.033032 -2.635363 -3.871040 
head 5.155528 -1.416477 -2.102865 
rclavicle 0.000000 0.000000 
rhumerus -39.825793 -18.793050 -79.551190 
rradius 29.762945 
rwrist 28.031988 
rhand -20.922263 -15.650942 
rfingers 0.000000 
rthumb 5.449372 -45.560872 
lclavicle 0.000000 0.000000 
lhumerus -35.233097 36.893757 74.631347 
lradius 24.158733 
lwrist -60.976459 
lhand -23.335437 0.338221 
lfingers 0.000000 
lthumb 3.119157 30.295195 
rfemur -33.220541 -0.055055 19.491246 
rtibia 55.240854 
rfoot -11.923649 -6.028510 
rtoes -19.999782 
lfemur -19.943186 -6.760272 -22.712189 
ltibia 17.234587 
lfoot -8.848140 3.024838 
ltoes -13.272441 
205
root -7.761917 17.463840 -14.918228 10.715976 3.892699 1.976512
lowerback -8.450510 -0.457130 -2.792771 
upperback -0.295172 -0.381483 -0.077993 
thorax 4.452418 -0.265824 1.442052 
lowerneck -10.106149 -1.707451 4.297636 
upperneck 12.091320 -2.592481 -3.848419 
head 5.186886 -1.393503 -2.097687 
rclavicle 0.000000 0.000000 
rhumerus -39.911051 -18.952356 -79.455185 
rradius 29.685501 
rwrist 28.039930 
rhand -21.010922 -15.701974 
rfingers 0.000000 
rthumb 5.363791 -45.614099 
lclavicle 0.000000 0.000000 
lhumerus -34.627197 36.495290 75.196810 
lradius 24.265918 
lwrist -60.582200 
lhand -23.457356 0.321119 
lfingers 0.000000 
lthumb 3.001440 30.279765 
rfemur -33.483452 0.255867 19.445374 
rtibia 54.696580 
rfoot -12.137037 -6.309991 
rtoes -19.871558 
lfemur -19.826342 -6.859756 -22.645530 
ltibia 17.241220 
lfoot -9.054791 3.106775 
ltoes -13.447250 
206
root -7.760682 17.465716 -14.884660 10.781281 3.928864 1.918798
lowerback -8.406105 -0.496830 -2.704854 
upperback -0.292671 -0.444320 -0.053912 
thorax 4.432449 -0.294704 1.410225 
lowerneck -10.164358 -1.689119 4.289024 
upperneck 12.140226 -2.573044 -3.814594 
head 5.213400 -1.382354 -2.086001 
rclavicle 0.000000 0.000000 
rhumerus -40.004214 -19.072552 -79.359095 
rradius 29.596182 
rwrist 28.109371 
rhand -21.092033 -15.736841 
rfingers 0.000000 
rthumb 5.285467 -45.650893 
lclavicle 0.000000 0.000000 
lhumerus -34.035441 36.091395 75.765935 
lradius 24.438227 
lwrist -60.100276 
lhand -23.416845 0.251132 
lfingers 0.000000 
lthumb 3.040550 30.209203 
rfemur -33.791395 0.498560 19.402553 
rtibia 54.120802 
rfoot -12.347649 -6.525879 
rtoes -19.547194 
lfemur -19.758312 -6.983282 -22.564861 
ltibia 17.213762 
lfoot -9.108165 3.172646 
ltoes -14.036401 
207
root -7.759469 17.466928 -14.850972 10.861373 3.960015 1.876936
lowerback -8.372938 -0.537832 -2.630007 
upperback -0.296703 -0.507475 -0.037845 
thorax 4.411964 -0.324080 1.377369 
lowerneck -10.217767 -1.671695 4.298140 
upperneck 12.186452 -2.552821 -3.816800 
head 5.237517 -1.372579 -2.088301 
rclavicle 0.000000 0.000000 
rhumerus -40.099848 -19.182626 -79.273348 
rradius 29.509671 
rwrist 28.201146 
rhand -21.165697 -15.774804 
rfingers 0.000000 
rthumb 5.214346 -45.690597 
lclavicle 0.000000 0.000000 
lhumerus -33.440049 35.661808 76.338998 
lradius 24.630463 
lwrist -59.611447 
lhand -23.295890 0.235639 
lfingers 0.000000 
lthumb 3.157340 30.191994 
rfemur -34.100181 0.710069 19.344686 
rtibia 53.513680 
rfoot -12.526067 -6.710505 
rtoes -19.260427 
lfemur -19.700597 -7.097322 -22.504281 
ltibia 17.175644 
lfoot -9.202175 3.226054 
ltoes -14.276488 
